<svg width="1587" height="604" viewBox="0 0 1587 604" fill="none" xmlns="http://www.w3.org/2000/svg">
<path d="M825.127 -0.000145464C842.397 -0.000145464 854.04 3.27054 860.058 9.81192C866.076 16.3533 869.085 29.3052 869.085 48.6676V77.3188C869.085 92.2331 865.946 103.092 859.666 109.895C856.526 113.296 852.339 116.567 847.106 119.707C842.135 122.847 835.986 126.641 828.66 131.089L741.921 185.251V267.673H767.433V294.361H685.011V267.673H709.738V27.0811H685.011V-0.000145464H825.127ZM840.434 27.0811H741.921V153.853L840.434 93.0181V27.0811ZM945.521 267.673H971.033V294.361H888.611V267.673H913.338V124.809H888.611V98.1204H945.521V267.673ZM929.429 25.9037C934.924 25.9037 939.503 27.9969 943.166 32.1834C947.091 36.1082 949.054 40.9488 949.054 46.7052C949.054 52.2 947.091 56.9098 943.166 60.8346C939.503 64.4977 934.793 66.3293 929.037 66.3293C923.542 66.3293 918.832 64.4977 914.908 60.8346C911.244 56.9098 909.413 52.2 909.413 46.7052C909.413 40.9488 911.375 36.1082 915.3 32.1834C919.225 27.9969 923.935 25.9037 929.429 25.9037ZM1004.71 267.673L1054.16 192.709L1009.03 124.809H985.87V98.1204H1023.55L1071.43 168.767L1116.17 98.1204H1154.64V124.809H1132.66L1087.52 192.709L1136.58 267.673H1158.56V294.361H1121.67L1071.43 216.257L1021.59 294.361H982.73V267.673H1004.71ZM1166.34 136.584C1166.34 110.68 1179.81 97.7279 1206.76 97.7279H1273.09C1285.91 97.7279 1295.2 100.214 1300.96 105.185C1306.72 110.156 1309.59 119.314 1309.59 132.659V169.16L1197.74 239.806V267.673H1278.59V244.909H1309.59V265.71C1309.59 273.56 1307.11 280.363 1302.14 286.119C1297.43 291.614 1289.45 294.361 1278.2 294.361H1197.74C1186.49 294.361 1178.37 291.614 1173.4 286.119C1168.69 280.363 1166.34 273.56 1166.34 265.71V136.584ZM1197.74 208.015L1278.2 157.385V124.809H1197.74V208.015ZM1382.14 267.673H1407.65V294.361H1325.23V267.673H1349.96V26.6886H1325.23V-0.000145464H1382.14V267.673ZM937.616 399.868V482.289H910.928V454.423H855.588V566.673H956.063V520.752H982.752V593.361H798.678V566.673H823.404V325.689H798.678V299H982.752V371.609H956.063V325.689H855.588V427.734H910.928V399.868H937.616ZM1168.39 566.673V593.361H1031.81C1018.46 593.361 1009.43 590.745 1004.72 585.512C1000.54 580.802 998.445 571.906 998.445 558.823V544.301C998.445 534.882 999.622 528.471 1001.98 525.069C1005.38 520.098 1013.1 513.949 1025.13 506.623L1111.48 452.853V423.809H1034.55V446.573H1009.43V397.12H1107.55C1120.9 397.12 1130.19 399.999 1135.42 405.755C1140.92 411.511 1143.66 419.884 1143.66 430.874V566.673H1168.39ZM1111.48 484.251L1029.84 535.274V566.673H1111.48V484.251ZM1220.26 325.689V397.12H1252.05V425.379H1220.26V566.673H1257.55V593.361H1224.58C1212.8 593.361 1204.04 590.352 1198.28 584.334C1192.53 578.055 1189.65 567.458 1189.65 552.543V425.379H1160.6V397.12H1189.65V325.689H1220.26ZM1265.55 435.584C1265.55 409.68 1279.02 396.728 1305.97 396.728H1372.3C1385.12 396.728 1394.41 399.214 1400.17 404.185C1405.93 409.156 1408.8 418.314 1408.8 431.659V468.16L1296.95 538.806V566.673H1377.8V543.909H1408.8V564.71C1408.8 572.56 1406.32 579.363 1401.35 585.119C1396.64 590.614 1388.66 593.361 1377.4 593.361H1296.95C1285.69 593.361 1277.58 590.614 1272.61 585.119C1267.9 579.363 1265.55 572.56 1265.55 564.71V435.584ZM1296.95 507.015L1377.4 456.385V423.809H1296.95V507.015ZM1539.44 397.12C1559.85 397.12 1570.05 407.194 1570.05 427.341V462.272H1538.26V424.202L1477.03 463.057V566.673H1496.27V593.361H1420.52V566.673H1445.24V423.417H1420.52V396.728H1477.03V431.266L1525.31 401.045C1529.5 398.429 1534.21 397.12 1539.44 397.12Z" fill="white"/>
<mask id="mask0_378_57" style="mask-type:alpha" maskUnits="userSpaceOnUse" x="0" y="5" width="588" height="589">
<path d="M588 107.107H498.352V198.073H434.197V296.698H483.031V395.323H548.143V493.949H588V593.361H0V5.36133H588V107.107Z" fill="white"/>
</mask>
<g mask="url(#mask0_378_57)">
<rect x="-1.19531" y="36.9561" width="150.72" height="150.72" fill="white"/>
<rect x="169.547" y="36.9561" width="150.72" height="150.72" fill="white"/>
<rect x="340.281" y="36.9561" width="150.72" height="150.72" fill="white"/>
<rect x="511.023" y="36.9561" width="150.72" height="150.72" fill="white"/>
<rect x="-1.19531" y="223.001" width="150.72" height="150.72" fill="white"/>
<rect x="169.547" y="223.001" width="150.72" height="150.72" fill="white"/>
<rect x="340.281" y="223.001" width="150.72" height="150.72" fill="white"/>
<rect x="511.023" y="223.001" width="150.72" height="150.72" fill="white"/>
<rect x="-1.19531" y="409.046" width="150.72" height="150.72" fill="white"/>
<rect x="169.547" y="409.046" width="150.72" height="150.72" fill="white"/>
<rect x="340.281" y="409.046" width="150.72" height="150.72" fill="white"/>
<rect x="511.023" y="409.046" width="150.72" height="150.72" fill="white"/>
</g>
</svg>
